<svg xmlns="http://www.w3.org/2000/svg" version="1.1" xmlns:xlink="http://www.w3.org/1999/xlink" xmlns:svgjs="http://svgjs.dev/svgjs" viewBox="0 0 8.170832284399456 8.125714450169324"><g transform="matrix(1,0,0,1,1.7790196578247284,3.790884568834662)"><g transform="matrix(1,0,0,1,0,0)"><g clip-path="url(#SvgjsClipPath1002)"><path d=" M 5.622557300289735 0.27197265625 C 5.622557300289735 2.115896816262417 4.12776172727235 3.6106923892798015 2.283837567259934 3.6106923892798015 C 0.43991340724751615 3.6106923892798015 -1.0548821657698677 2.115896816262417 -1.0548821657698677 0.27197265625 C -1.0548821657698677 -1.5719515037624177 0.43991340724751615 -3.0667470767798015 2.283837567259934 -3.0667470767798015 C 4.12776172727235 -3.0667470767798015 5.622557300289735 -1.5719515037624177 5.622557300289735 0.27197265625 Z" fill="#1192dc" transform="matrix(1,0,0,1,0,0)" fill-rule="nonzero"></path></g></g><g transform="matrix(1,0,0,1,0,0)"><path d=" M 0.64697265625 0.01806640625 Q 0.64697265625 0.02783203125 0.64013671875 0.030029296875 Q 0.63330078125 0.0322265625 0.62255859375 0.0322265625 L 0.349609375 0.0322265625 L 0.349609375 0.5078125 Q 0.349609375 0.51513671875 0.34912109375 0.521484375 Q 0.3486328125 0.52783203125 0.346435546875 0.532958984375 Q 0.34423828125 0.5380859375 0.34033203125 0.541015625 Q 0.33642578125 0.5439453125 0.3291015625 0.5439453125 Q 0.31640625 0.5439453125 0.312255859375 0.532958984375 Q 0.30810546875 0.52197265625 0.30810546875 0.5078125 L 0.30810546875 0.0322265625 L 0.03466796875 0.0322265625 Q 0.02392578125 0.0322265625 0.016357421875 0.030029296875 Q 0.0087890625 0.02783203125 0.0087890625 0.01806640625 Q 0.0087890625 0.0107421875 0.01220703125 0.007080078125 Q 0.015625 0.00341796875 0.020751953125 0.001953125 Q 0.02587890625 0.00048828125 0.032470703125 0.000244140625 Q 0.0390625 0 0.044921875 0 L 0.61181640625 0 Q 0.619140625 0 0.62548828125 0.000244140625 Q 0.6318359375 0.00048828125 0.636474609375 0.001953125 Q 0.64111328125 0.00341796875 0.64404296875 0.007080078125 Q 0.64697265625 0.0107421875 0.64697265625 0.01806640625 M 0.92138671875 0.47509765625 Q 0.9111328125 0.4873046875 0.895263671875 0.500244140625 Q 0.87939453125 0.51318359375 0.856201171875 0.52392578125 Q 0.8330078125 0.53466796875 0.8017578125 0.541748046875 Q 0.7705078125 0.548828125 0.7294921875 0.548828125 Q 0.67724609375 0.548828125 0.640380859375 0.538818359375 Q 0.603515625 0.52880859375 0.580078125 0.507568359375 Q 0.556640625 0.486328125 0.5458984375 0.453369140625 Q 0.53515625 0.42041015625 0.53515625 0.3740234375 L 0.53515625 0.205078125 Q 0.53515625 0.19873046875 0.535888671875 0.1923828125 Q 0.53662109375 0.18603515625 0.53857421875 0.18115234375 Q 0.54052734375 0.17626953125 0.54443359375 0.173095703125 Q 0.54833984375 0.169921875 0.5546875 0.169921875 Q 0.56201171875 0.169921875 0.56591796875 0.173095703125 Q 0.56982421875 0.17626953125 0.571533203125 0.18115234375 Q 0.5732421875 0.18603515625 0.57373046875 0.1923828125 Q 0.57421875 0.19873046875 0.57421875 0.205078125 L 0.57421875 0.3740234375 Q 0.57421875 0.4150390625 0.5810546875 0.44287109375 Q 0.587890625 0.470703125 0.605224609375 0.48779296875 Q 0.62255859375 0.5048828125 0.652587890625 0.512451171875 Q 0.6826171875 0.52001953125 0.7294921875 0.52001953125 Q 0.763671875 0.52001953125 0.792724609375 0.51416015625 Q 0.82177734375 0.50830078125 0.845703125 0.499267578125 Q 0.86962890625 0.490234375 0.888671875 0.47900390625 Q 0.90771484375 0.4677734375 0.921875 0.45703125 L 0.921875 0.205078125 Q 0.921875 0.19873046875 0.92236328125 0.1923828125 Q 0.9228515625 0.18603515625 0.924560546875 0.18115234375 Q 0.92626953125 0.17626953125 0.929931640625 0.173095703125 Q 0.93359375 0.169921875 0.93994140625 0.169921875 Q 0.947265625 0.169921875 0.951416015625 0.173095703125 Q 0.95556640625 0.17626953125 0.957763671875 0.18115234375 Q 0.9599609375 0.18603515625 0.96044921875 0.1923828125 Q 0.9609375 0.19873046875 0.9609375 0.205078125 L 0.9609375 0.509765625 Q 0.9609375 0.51611328125 0.960205078125 0.522216796875 Q 0.95947265625 0.5283203125 0.95751953125 0.533203125 Q 0.95556640625 0.5380859375 0.951904296875 0.541015625 Q 0.9482421875 0.5439453125 0.9423828125 0.5439453125 Q 0.9287109375 0.5439453125 0.925048828125 0.534912109375 Q 0.92138671875 0.52587890625 0.92138671875 0.51416015625 L 0.92138671875 0.509765625 L 0.92138671875 0.47509765625 M 1.69482421875 0.47607421875 L 1.99755859375 0.02099609375 Q 2.0048828125 0.009765625 2.012451171875 0.0048828125 Q 2.02001953125 0 2.02734375 0 Q 2.03662109375 0 2.042724609375 0.007568359375 Q 2.048828125 0.01513671875 2.048828125 0.0263671875 L 2.048828125 0.509765625 Q 2.048828125 0.52392578125 2.04541015625 0.533935546875 Q 2.0419921875 0.5439453125 2.02783203125 0.5439453125 Q 2.015625 0.5439453125 2.011474609375 0.533935546875 Q 2.00732421875 0.52392578125 2.00732421875 0.509765625 L 2.00732421875 0.076171875 L 1.71875 0.501953125 Q 1.70703125 0.5185546875 1.69482421875 0.5185546875 Q 1.681640625 0.5185546875 1.6708984375 0.501953125 L 1.38232421875 0.076171875 L 1.38232421875 0.509765625 Q 1.38232421875 0.52392578125 1.378173828125 0.533935546875 Q 1.3740234375 0.5439453125 1.36181640625 0.5439453125 Q 1.34765625 0.5439453125 1.34423828125 0.533935546875 Q 1.3408203125 0.52392578125 1.3408203125 0.509765625 L 1.3408203125 0.0263671875 Q 1.3408203125 0.01513671875 1.346923828125 0.007568359375 Q 1.35302734375 0 1.3623046875 0 Q 1.369140625 0 1.376708984375 0.0048828125 Q 1.38427734375 0.009765625 1.39208984375 0.02099609375 L 1.69482421875 0.47607421875 M 2.576171875 0.47509765625 Q 2.56591796875 0.4873046875 2.550048828125 0.500244140625 Q 2.5341796875 0.51318359375 2.510986328125 0.52392578125 Q 2.48779296875 0.53466796875 2.45654296875 0.541748046875 Q 2.42529296875 0.548828125 2.38427734375 0.548828125 Q 2.33203125 0.548828125 2.295166015625 0.538818359375 Q 2.25830078125 0.52880859375 2.23486328125 0.507568359375 Q 2.21142578125 0.486328125 2.20068359375 0.453369140625 Q 2.18994140625 0.42041015625 2.18994140625 0.3740234375 L 2.18994140625 0.205078125 Q 2.18994140625 0.19873046875 2.190673828125 0.1923828125 Q 2.19140625 0.18603515625 2.193359375 0.18115234375 Q 2.1953125 0.17626953125 2.19921875 0.173095703125 Q 2.203125 0.169921875 2.20947265625 0.169921875 Q 2.216796875 0.169921875 2.220703125 0.173095703125 Q 2.224609375 0.17626953125 2.226318359375 0.18115234375 Q 2.22802734375 0.18603515625 2.228515625 0.1923828125 Q 2.22900390625 0.19873046875 2.22900390625 0.205078125 L 2.22900390625 0.3740234375 Q 2.22900390625 0.4150390625 2.23583984375 0.44287109375 Q 2.24267578125 0.470703125 2.260009765625 0.48779296875 Q 2.27734375 0.5048828125 2.307373046875 0.512451171875 Q 2.33740234375 0.52001953125 2.38427734375 0.52001953125 Q 2.41845703125 0.52001953125 2.447509765625 0.51416015625 Q 2.4765625 0.50830078125 2.50048828125 0.499267578125 Q 2.5244140625 0.490234375 2.54345703125 0.47900390625 Q 2.5625 0.4677734375 2.57666015625 0.45703125 L 2.57666015625 0.205078125 Q 2.57666015625 0.19873046875 2.5771484375 0.1923828125 Q 2.57763671875 0.18603515625 2.579345703125 0.18115234375 Q 2.5810546875 0.17626953125 2.584716796875 0.173095703125 Q 2.58837890625 0.169921875 2.5947265625 0.169921875 Q 2.60205078125 0.169921875 2.606201171875 0.173095703125 Q 2.6103515625 0.17626953125 2.612548828125 0.18115234375 Q 2.61474609375 0.18603515625 2.615234375 0.1923828125 Q 2.61572265625 0.19873046875 2.61572265625 0.205078125 L 2.61572265625 0.509765625 Q 2.61572265625 0.51611328125 2.614990234375 0.522216796875 Q 2.6142578125 0.5283203125 2.6123046875 0.533203125 Q 2.6103515625 0.5380859375 2.606689453125 0.541015625 Q 2.60302734375 0.5439453125 2.59716796875 0.5439453125 Q 2.58349609375 0.5439453125 2.579833984375 0.534912109375 Q 2.576171875 0.52587890625 2.576171875 0.51416015625 L 2.576171875 0.509765625 L 2.576171875 0.47509765625 M 3.177734375 0.44189453125 Q 3.177734375 0.416015625 3.159423828125 0.40185546875 Q 3.14111328125 0.3876953125 3.111083984375 0.381103515625 Q 3.0810546875 0.37451171875 3.042724609375 0.372802734375 Q 3.00439453125 0.37109375 2.964599609375 0.369873046875 Q 2.9248046875 0.36865234375 2.886474609375 0.365478515625 Q 2.84814453125 0.3623046875 2.818115234375 0.352294921875 Q 2.7880859375 0.34228515625 2.769775390625 0.323486328125 Q 2.75146484375 0.3046875 2.75146484375 0.27197265625 Q 2.75146484375 0.23828125 2.769775390625 0.216796875 Q 2.7880859375 0.1953125 2.81787109375 0.1826171875 Q 2.84765625 0.169921875 2.88525390625 0.1650390625 Q 2.9228515625 0.16015625 2.9619140625 0.16015625 Q 3.02587890625 0.16015625 3.0810546875 0.170654296875 Q 3.13623046875 0.18115234375 3.18359375 0.2060546875 Q 3.1884765625 0.20849609375 3.190185546875 0.212158203125 Q 3.19189453125 0.2158203125 3.1923828125 0.2197265625 Q 3.1923828125 0.22607421875 3.1884765625 0.23095703125 Q 3.1845703125 0.23583984375 3.1796875 0.23583984375 Q 3.1767578125 0.23583984375 3.17578125 0.23486328125 Q 3.13427734375 0.2138671875 3.081787109375 0.201416015625 Q 3.029296875 0.18896484375 2.9638671875 0.18896484375 Q 2.9306640625 0.18896484375 2.8994140625 0.193115234375 Q 2.8681640625 0.197265625 2.843994140625 0.206787109375 Q 2.81982421875 0.21630859375 2.80517578125 0.232177734375 Q 2.79052734375 0.248046875 2.79052734375 0.27197265625 Q 2.79052734375 0.29638671875 2.808837890625 0.3095703125 Q 2.8271484375 0.32275390625 2.857177734375 0.328857421875 Q 2.88720703125 0.3349609375 2.925537109375 0.33642578125 Q 2.9638671875 0.337890625 3.003662109375 0.33935546875 Q 3.04345703125 0.3408203125 3.081787109375 0.344482421875 Q 3.1201171875 0.34814453125 3.150146484375 0.358642578125 Q 3.18017578125 0.369140625 3.198486328125 0.388916015625 Q 3.216796875 0.40869140625 3.216796875 0.44189453125 Q 3.216796875 0.4716796875 3.1982421875 0.4921875 Q 3.1796875 0.5126953125 3.14892578125 0.525146484375 Q 3.1181640625 0.53759765625 3.077880859375 0.543212890625 Q 3.03759765625 0.548828125 2.99462890625 0.548828125 Q 2.96826171875 0.548828125 2.937744140625 0.547607421875 Q 2.9072265625 0.54638671875 2.876708984375 0.541748046875 Q 2.84619140625 0.537109375 2.818115234375 0.527587890625 Q 2.7900390625 0.51806640625 2.76904296875 0.50146484375 Q 2.76220703125 0.49609375 2.76220703125 0.48876953125 Q 2.76220703125 0.482421875 2.765869140625 0.477783203125 Q 2.76953125 0.47314453125 2.77490234375 0.47314453125 Q 2.77880859375 0.47314453125 2.78076171875 0.47509765625 Q 2.80126953125 0.4892578125 2.824951171875 0.498046875 Q 2.8486328125 0.5068359375 2.875 0.51171875 Q 2.9013671875 0.5166015625 2.93017578125 0.518310546875 Q 2.958984375 0.52001953125 2.98974609375 0.52001953125 Q 3.0263671875 0.52001953125 3.060302734375 0.516357421875 Q 3.09423828125 0.5126953125 3.120361328125 0.503662109375 Q 3.146484375 0.49462890625 3.162109375 0.479736328125 Q 3.177734375 0.46484375 3.177734375 0.44189453125 M 3.3935546875 0.51318359375 Q 3.3935546875 0.51953125 3.39306640625 0.525146484375 Q 3.392578125 0.53076171875 3.390869140625 0.534912109375 Q 3.38916015625 0.5390625 3.38525390625 0.54150390625 Q 3.38134765625 0.5439453125 3.3740234375 0.5439453125 Q 3.3603515625 0.5439453125 3.357421875 0.53564453125 Q 3.3544921875 0.52734375 3.3544921875 0.51318359375 L 3.3544921875 0.19970703125 Q 3.3544921875 0.1875 3.35791015625 0.1787109375 Q 3.361328125 0.169921875 3.375 0.169921875 Q 3.38720703125 0.169921875 3.390380859375 0.1787109375 Q 3.3935546875 0.1875 3.3935546875 0.19873046875 L 3.3935546875 0.51318359375 M 3.34814453125 0.0595703125 Q 3.34814453125 0.04833984375 3.35546875 0.040771484375 Q 3.36279296875 0.033203125 3.3740234375 0.033203125 Q 3.38525390625 0.033203125 3.39306640625 0.040771484375 Q 3.40087890625 0.04833984375 3.40087890625 0.0595703125 Q 3.40087890625 0.07080078125 3.39306640625 0.07763671875 Q 3.38525390625 0.08447265625 3.3740234375 0.08447265625 Q 3.36279296875 0.08447265625 3.35546875 0.07763671875 Q 3.34814453125 0.07080078125 3.34814453125 0.0595703125 M 3.78515625 0.18896484375 Q 3.72900390625 0.18896484375 3.689453125 0.1982421875 Q 3.64990234375 0.20751953125 3.624755859375 0.227783203125 Q 3.599609375 0.248046875 3.587890625 0.27978515625 Q 3.576171875 0.3115234375 3.576171875 0.35595703125 Q 3.576171875 0.40087890625 3.589111328125 0.43212890625 Q 3.60205078125 0.46337890625 3.628173828125 0.48291015625 Q 3.654296875 0.50244140625 3.693359375 0.51123046875 Q 3.732421875 0.52001953125 3.78466796875 0.52001953125 Q 3.80810546875 0.52001953125 3.832275390625 0.5166015625 Q 3.8564453125 0.51318359375 3.87841796875 0.508056640625 Q 3.900390625 0.5029296875 3.9189453125 0.49658203125 Q 3.9375 0.490234375 3.94921875 0.484375 Q 3.95654296875 0.48193359375 3.95947265625 0.48193359375 Q 3.9658203125 0.48193359375 3.969482421875 0.485595703125 Q 3.97314453125 0.4892578125 3.97314453125 0.49462890625 Q 3.97314453125 0.49853515625 3.970703125 0.502685546875 Q 3.96826171875 0.5068359375 3.962890625 0.509765625 Q 3.919921875 0.53173828125 3.8740234375 0.540283203125 Q 3.828125 0.548828125 3.78515625 0.548828125 Q 3.7294921875 0.548828125 3.683837890625 0.5400390625 Q 3.63818359375 0.53125 3.605712890625 0.50927734375 Q 3.5732421875 0.4873046875 3.55517578125 0.4501953125 Q 3.537109375 0.4130859375 3.537109375 0.35595703125 Q 3.537109375 0.29931640625 3.5537109375 0.26171875 Q 3.5703125 0.22412109375 3.60205078125 0.201416015625 Q 3.6337890625 0.1787109375 3.679931640625 0.16943359375 Q 3.72607421875 0.16015625 3.78515625 0.16015625 Q 3.828125 0.16015625 3.8740234375 0.168701171875 Q 3.919921875 0.17724609375 3.962890625 0.19921875 Q 3.96826171875 0.2021484375 3.970703125 0.206298828125 Q 3.97314453125 0.21044921875 3.97314453125 0.21435546875 Q 3.97314453125 0.2197265625 3.969482421875 0.223388671875 Q 3.9658203125 0.22705078125 3.95947265625 0.22705078125 Q 3.95654296875 0.22705078125 3.94921875 0.224609375 Q 3.9375 0.21875 3.9189453125 0.21240234375 Q 3.900390625 0.2060546875 3.87841796875 0.200927734375 Q 3.8564453125 0.19580078125 3.832275390625 0.1923828125 Q 3.80810546875 0.18896484375 3.78515625 0.18896484375 M 4.1357421875 0.4345703125 Q 4.1357421875 0.4580078125 4.147705078125 0.47412109375 Q 4.15966796875 0.490234375 4.18115234375 0.50048828125 Q 4.20263671875 0.5107421875 4.232177734375 0.515380859375 Q 4.26171875 0.52001953125 4.296875 0.52001953125 Q 4.33984375 0.52001953125 4.373046875 0.513916015625 Q 4.40625 0.5078125 4.43115234375 0.49853515625 Q 4.4560546875 0.4892578125 4.47314453125 0.478271484375 Q 4.490234375 0.46728515625 4.50146484375 0.45703125 L 4.50146484375 0.35888671875 Q 4.45263671875 0.35205078125 4.400390625 0.345947265625 Q 4.34814453125 0.33984375 4.294921875 0.33984375 Q 4.25732421875 0.33984375 4.227783203125 0.34423828125 Q 4.1982421875 0.3486328125 4.177734375 0.359375 Q 4.1572265625 0.3701171875 4.146484375 0.388427734375 Q 4.1357421875 0.40673828125 4.1357421875 0.4345703125 M 4.34326171875 0.18896484375 Q 4.29638671875 0.18896484375 4.26318359375 0.19140625 Q 4.22998046875 0.19384765625 4.206298828125 0.19775390625 Q 4.1826171875 0.20166015625 4.16650390625 0.2060546875 Q 4.150390625 0.21044921875 4.13818359375 0.21484375 Q 4.13232421875 0.21484375 4.12744140625 0.208984375 Q 4.12255859375 0.203125 4.12255859375 0.1962890625 Q 4.12255859375 0.18994140625 4.12841796875 0.18701171875 Q 4.13232421875 0.18505859375 4.146728515625 0.1806640625 Q 4.1611328125 0.17626953125 4.187255859375 0.171630859375 Q 4.21337890625 0.1669921875 4.252197265625 0.16357421875 Q 4.291015625 0.16015625 4.34375 0.16015625 Q 4.36865234375 0.16015625 4.39306640625 0.163330078125 Q 4.41748046875 0.16650390625 4.439208984375 0.1748046875 Q 4.4609375 0.18310546875 4.479736328125 0.19775390625 Q 4.49853515625 0.21240234375 4.511962890625 0.235595703125 Q 4.525390625 0.2587890625 4.533203125 0.291748046875 Q 4.541015625 0.32470703125 4.541015625 0.369140625 L 4.541015625 0.509765625 Q 4.541015625 0.515625 4.54052734375 0.521484375 Q 4.5400390625 0.52734375 4.537841796875 0.532470703125 Q 4.53564453125 0.53759765625 4.53173828125 0.540771484375 Q 4.52783203125 0.5439453125 4.52099609375 0.5439453125 Q 4.509765625 0.5439453125 4.505615234375 0.53369140625 Q 4.50146484375 0.5234375 4.50146484375 0.5078125 L 4.50146484375 0.47412109375 Q 4.49169921875 0.486328125 4.47607421875 0.49951171875 Q 4.46044921875 0.5126953125 4.4365234375 0.523681640625 Q 4.41259765625 0.53466796875 4.37939453125 0.541748046875 Q 4.34619140625 0.548828125 4.30078125 0.548828125 Q 4.25830078125 0.548828125 4.220947265625 0.54248046875 Q 4.18359375 0.5361328125 4.156005859375 0.5224609375 Q 4.12841796875 0.5087890625 4.112548828125 0.487060546875 Q 4.0966796875 0.46533203125 4.0966796875 0.4345703125 Q 4.0966796875 0.39892578125 4.111572265625 0.375244140625 Q 4.12646484375 0.3515625 4.15283203125 0.337158203125 Q 4.17919921875 0.32275390625 4.214599609375 0.31689453125 Q 4.25 0.31103515625 4.291015625 0.31103515625 Q 4.32177734375 0.31103515625 4.352783203125 0.313232421875 Q 4.3837890625 0.3154296875 4.41162109375 0.319580078125 Q 4.439453125 0.32373046875 4.462646484375 0.329833984375 Q 4.48583984375 0.3359375 4.50146484375 0.34423828125 Q 4.50146484375 0.29443359375 4.48828125 0.26416015625 Q 4.47509765625 0.23388671875 4.453125 0.217041015625 Q 4.43115234375 0.2001953125 4.402587890625 0.194580078125 Q 4.3740234375 0.18896484375 4.34326171875 0.18896484375" fill="#ffffff" fill-rule="nonzero"></path></g><g transform="matrix(1,0,0,1,0,0)"></g></g><defs><clipPath id="SvgjsClipPath1002"><path d=" M -1.1 -3.111864911009934 h 6.81279296875 v 6.767675134519868 h -6.81279296875 Z"></path></clipPath></defs></svg>